<svg width="176" height="66" viewBox="0 0 176 66" fill="none" xmlns="http://www.w3.org/2000/svg">
<path fill-rule="evenodd" clip-rule="evenodd" d="M69.3791 1.36422L165.791 2.29787L167.103 24.731L173.418 29.3579L174.761 57.2489L167.103 65.9001H23.0274L2.11525 44.9879L4.40324 2.0856H68.538L69.3791 1.36422Z" fill="#842BDC" fill-opacity="0.1"/>
<path d="M160.107 3.91765H167.391L168.03 5.63705H160.722L160.107 3.91765Z" fill="#FF217E"/>
<path d="M5.82259 2.71941H7.8394L8.47849 1H5.82227L5.82259 2.71941Z" fill="#FF217E"/>
<path d="M1.31478 63.1589H3.97068V61.4395H1.31445L1.31478 63.1589Z" fill="#FF217E"/>
<path d="M173.784 64.2487H175.428L175.176 60.5254H173.531L173.784 64.2487Z" fill="#FF217E"/>
<path d="M60.2266 5.98796L153.352 5.98797M160.107 3.91765H167.391L168.03 5.63705H160.722L160.107 3.91765ZM5.82259 2.71941H7.8394L8.47849 1H5.82227L5.82259 2.71941ZM1.31478 63.1589H3.97068V61.4395H1.31445L1.31478 63.1589ZM173.784 64.2487H175.428L175.176 60.5254H173.531L173.784 64.2487Z" stroke="#FF217E"/>
</svg>
